<svg width="208" height="41" viewBox="0 0 208 41" fill="none" xmlns="http://www.w3.org/2000/svg">
<g clip-path="url(#clip0_9_266)">
<mask id="mask0_9_266" style="mask-type:luminance" maskUnits="userSpaceOnUse" x="0" y="0" width="208" height="41">
<path d="M0 0H208V41H0V0Z" fill="white"/>
</mask>
<g mask="url(#mask0_9_266)">
<path fill-rule="evenodd" clip-rule="evenodd" d="M13.935 36.1231C13.8021 36.1219 13.6713 36.0903 13.5526 36.0306C13.4338 35.971 13.3303 35.885 13.25 35.7791C13.0219 35.4759 12.8678 35.1235 12.8 34.7501C12.6916 34.2748 12.6081 33.7942 12.55 33.3101C12.4809 32.6868 12.4455 32.0603 12.444 31.4331C12.4234 30.0552 12.4281 28.6769 12.458 27.2991C12.476 26.4531 12.484 25.7931 12.484 25.3171V9.56514C12.484 8.78914 12.489 8.19914 12.498 7.79414C12.507 7.38914 12.538 6.93114 12.589 6.42014C12.619 6.04014 12.685 5.66414 12.788 5.29714C12.888 5.01414 13.021 4.74414 13.183 4.49114C13.333 4.22614 13.551 4.00714 13.816 3.85714C14.124 3.70314 14.441 3.56714 14.765 3.44714C15.1825 3.29195 15.6152 3.18134 16.056 3.11714C16.6303 3.03329 17.2065 2.96261 17.784 2.90514V1.45014L17.334 1.00014H1.41201L0.990005 1.45014V2.69214C3.66201 2.85114 5.15601 3.60914 5.47201 4.96514C5.65601 6.11014 5.74401 7.26814 5.73601 8.42714V32.5541C5.78021 33.8074 5.72705 35.0621 5.57701 36.3071C5.50401 36.5011 5.39701 36.6791 5.26101 36.8351C5.05737 37.0787 4.84212 37.3123 4.61601 37.5351C4.43685 37.7082 4.26535 37.8891 4.10201 38.0771V39.0021C17.689 39.0021 26.099 39.0901 29.332 39.2671L30.467 35.4351L29.755 34.9321C24.505 35.5931 19.225 35.9901 13.936 36.1221L13.935 36.1231ZM39.191 25.0771C39.1395 25.0916 39.0865 25.1003 39.033 25.1031C38.77 25.1031 38.638 25.0071 38.638 24.8131C38.639 23.9371 38.705 23.0621 38.836 22.1961C38.984 21.2521 39.231 20.3261 39.574 19.4351C39.9046 18.5317 40.3578 17.678 40.921 16.8981C41.5179 16.1047 42.2931 15.4629 43.1839 15.0244C44.0747 14.586 45.0562 14.3632 46.049 14.3741C46.7655 14.3344 47.4799 14.4816 48.1223 14.8014C48.7647 15.1212 49.3128 15.6025 49.713 16.1981C50.5442 17.43 50.977 18.8873 50.953 20.3731C50.9495 20.6455 50.863 20.9103 50.705 21.1322C50.5471 21.3541 50.3252 21.5226 50.069 21.6151C48.6253 22.1969 47.1512 22.7 45.653 23.1221C43.5459 23.7422 41.4458 24.3855 39.353 25.0521C39.2982 25.0544 39.2439 25.0628 39.191 25.0771ZM54.851 33.3221C51.686 35.2421 48.953 36.2021 46.653 36.2021C45.0949 36.236 43.5649 35.7833 42.276 34.9071C41.077 34.1025 40.1236 32.9823 39.521 31.6701C38.9277 30.3543 38.6264 28.9255 38.638 27.4821C50.133 23.9061 55.933 22.1171 56.038 22.1171C56.4945 22.0237 56.9024 21.7698 57.1877 21.4014C57.473 21.033 57.6168 20.5745 57.593 20.1091C57.6243 18.8118 57.3201 17.5284 56.71 16.3831C56.1528 15.3588 55.3282 14.5048 54.324 13.9121C53.3108 13.3174 52.2129 12.8808 51.068 12.6171C49.8262 12.336 48.5562 12.1984 47.283 12.2071C44.999 12.1717 42.734 12.627 40.641 13.5421C38.7956 14.3393 37.1651 15.5619 35.883 17.1101C34.6742 18.6072 33.7413 20.3073 33.128 22.1311C32.492 24.0077 32.171 25.9767 32.178 27.9581C32.178 32.0281 33.278 35.0761 35.474 37.1021C37.46 38.9521 40.264 39.8761 43.884 39.8761C45.9596 39.8549 48.0026 39.3578 49.856 38.4231C52.0879 37.3115 54.2259 36.0206 56.249 34.5631L55.672 33.5351L54.851 33.3221ZM90.36 5.45714C89.6536 3.61192 88.2663 2.10796 86.484 1.25514C84.2762 0.326286 81.8914 -0.106568 79.498 -0.0128623C77.7514 -0.0228811 76.0107 0.190175 74.318 0.621138C72.7435 1.02204 71.2404 1.66396 69.862 2.52414C68.5119 3.37528 67.4077 4.5646 66.659 5.97414C65.8463 7.51591 65.4379 9.23861 65.472 10.9811C65.4711 12.2285 65.7742 13.4573 66.355 14.5611C66.9098 15.6537 67.6606 16.6349 68.57 17.4561C69.548 18.3188 70.5874 19.1092 71.68 19.8211C72.7767 20.5518 73.9124 21.2221 75.082 21.8291C76.1816 22.3943 77.2631 22.994 78.325 23.6271C79.205 24.1251 80.031 24.7141 80.79 25.3841C82.74 27.1991 83.716 28.9251 83.716 30.5641C83.7124 31.4347 83.5304 32.2954 83.1813 33.0929C82.8321 33.8904 82.3232 34.6079 81.686 35.2011C81.0534 35.8523 80.2946 36.3675 79.456 36.7151C78.6175 37.0628 77.7167 37.2357 76.809 37.2231C75.7476 37.2536 74.6934 37.0408 73.7269 36.6011C72.7604 36.1614 71.9073 35.5063 71.233 34.6861C69.8337 33.0838 69.0696 31.0244 69.085 28.8971L68.058 28.5271L62.812 34.4201C64.0109 36.1553 65.6364 37.5525 67.532 38.4771C69.4594 39.4227 71.5802 39.9071 73.727 39.8921C75.6858 39.8823 77.6321 39.5789 79.501 38.9921C81.3805 38.4263 83.1728 37.6035 84.827 36.5471C86.3996 35.5429 87.7351 34.2087 88.741 32.6371C89.7269 31.1427 90.2539 29.3925 90.257 27.6021C90.2649 26.6414 90.0954 25.6874 89.757 24.7881C89.444 23.9531 89.0085 23.1692 88.465 22.4621C87.8252 21.6772 87.0848 20.9799 86.263 20.3881C85.3651 19.711 84.4274 19.0882 83.455 18.5231C82.2911 17.86 81.1135 17.2212 79.923 16.6071C79.0929 16.2047 78.2752 15.7772 77.471 15.3251C76.7105 14.8807 75.9704 14.4022 75.253 13.8911C74.5175 13.3869 73.8453 12.796 73.251 12.1311C72.7287 11.5106 72.302 10.8156 71.985 10.0691C71.6331 9.26529 71.4536 8.39662 71.458 7.51914C71.4418 6.80149 71.5697 6.08788 71.8343 5.42056C72.0988 4.75324 72.4945 4.14578 72.998 3.63414C73.5301 3.10229 74.1669 2.68677 74.8681 2.41393C75.5692 2.14109 76.3194 2.01687 77.071 2.04914C78.0021 2.00893 78.9305 2.17519 79.7897 2.536C80.649 2.89682 81.4178 3.44325 82.041 4.13614C83.2897 5.54945 84.0763 7.31092 84.295 9.18414L85.218 9.47414L90.36 5.45714ZM115.998 15.5921C115.527 14.7673 114.845 14.0831 114.021 13.6101C113.206 13.1444 112.326 12.8016 111.411 12.5931C110.429 12.3753 109.425 12.269 108.419 12.2761C106.5 12.2491 104.592 12.5761 102.79 13.2411C101.244 13.8025 99.8278 14.6698 98.625 15.7911C97.5072 16.874 96.5802 18.1378 95.883 19.5291C95.1664 20.9288 94.6387 22.4175 94.314 23.9561C93.9937 25.5123 93.8349 27.0974 93.84 28.6861C93.834 30.0361 94.025 31.3801 94.406 32.6741C94.776 33.9271 95.351 35.1101 96.106 36.1761C96.9021 37.2757 97.9699 38.1498 99.205 38.7131C100.623 39.3611 102.168 39.6821 103.726 39.6511C108.665 39.6511 113.305 37.4751 117.646 33.1241L117.119 32.3571L116.46 32.1991C113.244 34.6831 110.273 35.9251 107.549 35.9251C106.529 35.9416 105.521 35.7103 104.61 35.2511C103.784 34.8412 103.066 34.2444 102.511 33.5081C101.96 32.7513 101.512 31.9247 101.179 31.0501C100.833 30.1768 100.581 29.269 100.428 28.3421C100.288 27.4681 100.218 26.5841 100.217 25.6991C100.223 24.5741 100.32 23.4521 100.507 22.3431C100.714 21.1081 101.023 19.8931 101.43 18.7091C101.8 17.552 102.442 16.5006 103.302 15.6431C103.681 15.2594 104.132 14.9554 104.63 14.7489C105.129 14.5425 105.663 14.4379 106.202 14.4411C106.922 14.4014 107.64 14.5635 108.273 14.909C108.906 15.2545 109.431 15.7699 109.787 16.3971C110.602 17.8658 111.003 19.5283 110.947 21.2071L111.87 21.5771L116.853 18.6181C116.812 17.5559 116.519 16.5187 115.998 15.5921ZM125.661 23.4541C125.795 22.4161 126.029 21.3941 126.36 20.4021C126.663 19.4371 127.093 18.5181 127.638 17.6671C128.162 16.8788 128.862 16.2229 129.682 15.7511C130.567 15.2404 131.574 14.9801 132.595 14.9981C133.703 14.9699 134.796 15.2586 135.745 15.8301C136.627 16.3795 137.336 17.1676 137.788 18.1031C138.265 19.0701 138.61 20.0961 138.815 21.1551C139.032 22.2951 139.139 23.4551 139.132 24.6171C139.132 25.6741 139.123 26.5551 139.105 27.2591C139.077 28.1072 139.016 28.9539 138.921 29.7971C138.843 30.6271 138.698 31.4481 138.486 32.2541C138.279 32.9641 138.01 33.6541 137.682 34.3161C137.38 34.9714 136.944 35.5563 136.403 36.0331C135.844 36.4896 135.211 36.8471 134.531 37.0901C133.707 37.385 132.836 37.5283 131.961 37.5131C130.997 37.5249 130.053 37.2385 129.258 36.6931C128.483 36.1737 127.838 35.482 127.374 34.6721C126.887 33.8005 126.506 32.8735 126.24 31.9111C125.96 30.9641 125.757 29.9959 125.633 29.0161C125.531 28.1699 125.478 27.3185 125.475 26.4661C125.474 25.4592 125.537 24.4533 125.661 23.4541ZM122.392 37.1171C124.307 38.8611 127.348 39.7331 131.514 39.7331C133.054 39.7431 134.59 39.5661 136.088 39.2041C137.497 38.8538 138.84 38.2784 140.066 37.5001C141.298 36.7228 142.375 35.7236 143.243 34.5531C144.192 33.226 144.897 31.7405 145.326 30.1661C145.858 28.2569 146.115 26.2818 146.091 24.3001C146.142 22.7046 145.846 21.117 145.222 19.6475C144.598 18.178 143.662 16.8618 142.479 15.7901C140.281 13.8181 137.091 12.8311 132.909 12.8311C128.726 12.8311 125.281 14.1261 122.574 16.7161C121.245 17.9722 120.196 19.4949 119.497 21.1844C118.797 22.8739 118.462 24.6922 118.514 26.5201C118.514 31.2421 119.805 34.7741 122.389 37.1171H122.392ZM163.65 16.1871C165.056 16.1871 166.058 16.4691 166.656 17.0331C167.213 17.7131 167.565 18.5391 167.67 19.4131C167.891 20.4431 168.028 21.4911 168.079 22.5441C168.114 23.4691 168.132 24.6631 168.132 26.1251C168.131 28.0235 168.118 29.9219 168.093 31.8201C168.084 32.3921 168.088 33.0661 168.105 33.8421C168.11 34.4201 168.145 34.9981 168.211 35.5721C168.264 35.9521 168.334 36.3661 168.422 36.8141C168.483 37.1901 168.608 37.5511 168.791 37.8841C168.949 38.1491 169.143 38.3901 169.369 38.5991C170.16 39.3168 171.201 39.696 172.268 39.6551C173.587 39.6551 175.098 38.9851 176.803 37.6471C178.226 36.4638 179.581 35.2018 180.863 33.8671L180.257 32.9671H179.624C178.593 33.7944 177.332 34.2836 176.013 34.3681C175.734 34.3842 175.454 34.3432 175.191 34.2478C174.928 34.1524 174.687 34.0045 174.483 33.8131C174.301 33.6693 174.145 33.4955 174.021 33.2991C173.876 32.9534 173.783 32.5881 173.745 32.2151C173.644 31.4575 173.6 30.6934 173.613 29.9291C173.613 29.3481 173.644 28.4091 173.705 27.1151C173.754 26.1952 173.785 25.2743 173.798 24.3531V22.7671C173.815 21.0581 173.811 19.8741 173.785 19.2121C173.732 18.309 173.631 17.4093 173.481 16.5171C173.415 15.6759 173.134 14.8659 172.664 14.1651C172.2 13.6617 171.645 13.2496 171.029 12.9501C170.192 12.5452 169.269 12.35 168.34 12.3811C165.247 12.3811 161.661 13.6501 157.584 16.1871L156.951 15.9491C156.917 14.9774 156.601 14.0366 156.042 13.2411C155.523 12.5611 154.631 12.2231 153.366 12.2231C152.608 12.2327 151.856 12.3619 151.138 12.6061C150.303 12.8861 149.506 13.2681 148.764 13.7421C147.964 14.2451 147.27 14.7121 146.681 15.1431C146.092 15.5741 145.411 16.0981 144.638 16.7151L145.613 18.0101C145.792 17.8942 145.973 17.7798 146.154 17.6671C146.461 17.4731 146.729 17.3151 146.958 17.1911C147.186 17.0681 147.459 16.9231 147.775 16.7551C148.058 16.6011 148.354 16.4721 148.659 16.3691C148.892 16.2891 149.136 16.2441 149.383 16.2371C149.688 16.2301 149.989 16.3071 150.253 16.4621C150.521 16.6391 150.723 16.8991 150.831 17.2021C150.963 17.5221 151.077 17.8471 151.173 18.1791C151.281 18.6261 151.343 19.0821 151.358 19.5411C151.394 20.1411 151.415 20.6251 151.422 20.9941C151.43 21.3631 151.434 21.9181 151.435 22.6591V23.1091C151.435 24.8351 151.303 30.1201 151.04 38.9641L151.699 39.3341L157.631 37.6161C157.455 36.8591 157.323 34.4721 157.235 30.4561C157.148 26.5277 157.105 22.5985 157.107 18.6691C160.165 17.0131 162.344 16.1851 163.645 16.1851L163.65 16.1871ZM189.223 25.1971C189.172 25.2125 189.119 25.2219 189.065 25.2251C188.802 25.2251 188.67 25.1281 188.669 24.9351C188.67 24.0581 188.736 23.1841 188.868 22.3181C189.016 21.3741 189.263 20.4481 189.605 19.5561C189.936 18.6531 190.388 17.7991 190.95 17.0191C191.547 16.2255 192.322 15.5835 193.213 15.145C194.104 14.7065 195.085 14.4839 196.078 14.4951C196.794 14.4553 197.509 14.6025 198.151 14.9223C198.794 15.2421 199.342 15.7234 199.742 16.3191C200.573 17.5509 201.006 19.0084 200.981 20.4941C200.977 20.7663 200.891 21.0308 200.733 21.2526C200.575 21.4744 200.354 21.6431 200.098 21.7361C198.655 22.3176 197.181 22.8207 195.683 23.2431C193.576 23.863 191.475 24.5064 189.382 25.1731C189.329 25.176 189.276 25.1844 189.224 25.1981L189.223 25.1971ZM204.883 33.4431C201.718 35.3641 198.985 36.3241 196.684 36.3231C195.126 36.3567 193.596 35.9045 192.307 35.0291C191.108 34.2243 190.155 33.1041 189.553 31.7921C188.959 30.4757 188.658 29.0463 188.669 27.6021C200.164 24.0271 205.964 22.2391 206.07 22.2391C206.527 22.1453 206.934 21.8911 207.22 21.5226C207.505 21.1541 207.649 20.6956 207.625 20.2301C207.656 18.9328 207.352 17.6495 206.742 16.5041C206.185 15.4798 205.36 14.6258 204.356 14.0331C203.343 13.4387 202.245 13.002 201.1 12.7381C199.858 12.4569 198.588 12.3193 197.314 12.3281C195.031 12.2929 192.766 12.7482 190.674 13.6631C188.829 14.4602 187.198 15.6829 185.916 17.2311C184.707 18.7279 183.774 20.4282 183.161 22.2521C182.525 24.1287 182.204 26.0977 182.212 28.0791C182.212 32.1491 183.31 35.1961 185.507 37.2231C187.493 39.0731 190.296 39.9971 193.917 39.9971C195.993 39.9758 198.036 39.4787 199.889 38.5441C202.121 37.4323 204.259 36.1418 206.282 34.6851L205.705 33.6561L204.883 33.4431Z" fill="white"/>
</g>
</g>
<defs>
<clipPath id="clip0_9_266">
<rect width="208" height="41" fill="white"/>
</clipPath>
</defs>
</svg>
