<svg width="200" height="49" viewBox="0 0 200 49" fill="none" xmlns="http://www.w3.org/2000/svg">
<g clip-path="url(#clip0_9_261)">
<path d="M54.381 44.0139C51.061 44.0139 48.516 43.4459 46.745 42.3099C45.005 41.1419 44.136 39.4368 44.136 37.1959C44.136 36.0599 44.516 35.1279 45.274 34.4019C46.065 33.6449 47.077 33.2659 48.31 33.2659C49.037 33.2978 49.59 33.4859 49.97 33.8339C50.35 34.1499 50.54 34.4499 50.54 34.7339C50.54 34.7649 50.381 34.8759 50.065 35.0648C49.749 35.2549 49.465 35.5389 49.211 35.9169C48.958 36.2969 48.831 36.8169 48.831 37.4799C48.831 38.9639 49.275 40.1159 50.16 40.9369C51.077 41.7259 52.484 42.1199 54.381 42.1199C55.678 42.1199 56.816 41.8679 57.797 41.3629C58.777 40.8578 59.52 40.1949 60.026 39.3739C60.563 38.5219 60.832 37.6379 60.832 36.7219C60.832 35.5859 60.5 34.6078 59.836 33.7868C59.191 32.9552 58.3845 32.2627 57.465 31.7509C56.515 31.1828 55.219 30.5349 53.575 29.8089C51.678 28.9569 50.145 28.1839 48.975 27.4889C47.7993 26.79 46.7812 25.855 45.985 24.7429C45.164 23.5749 44.753 22.1389 44.753 20.4339C44.753 17.6879 45.685 15.6359 47.551 14.2789C49.449 12.9209 51.931 12.2429 54.998 12.2429C57.401 12.2429 59.488 12.7479 61.259 13.7579C63.062 14.7679 63.963 16.2519 63.963 18.2079C63.963 19.3449 63.567 20.2919 62.777 21.0499C62.018 21.7759 61.022 22.1389 59.789 22.1389C59.061 22.1069 58.508 21.9329 58.129 21.6179C57.749 21.2709 57.559 20.9549 57.559 20.6709C57.559 20.6389 57.765 20.5289 58.176 20.3389C58.619 20.1499 58.998 19.8659 59.314 19.4869C59.662 19.1079 59.836 18.5869 59.836 17.9249C59.836 16.7569 59.378 15.8409 58.461 15.1779C57.575 14.5149 56.437 14.1839 55.045 14.1839C53.117 14.1839 51.646 14.6419 50.635 15.5569C49.654 16.4409 49.164 17.5459 49.164 18.8719C49.164 19.9759 49.464 20.9079 50.065 21.6649C50.665 22.3909 51.63 23.1169 52.958 23.8429C54.1096 24.4483 55.2802 25.017 56.468 25.5479C58.492 26.4629 60.089 27.2999 61.259 28.0579C62.4637 28.8186 63.4842 29.8375 64.247 31.0409C65.069 32.2709 65.481 33.8029 65.481 35.6329C65.481 37.2119 64.975 38.6479 63.963 39.9429C62.983 41.2049 61.638 42.1988 59.931 42.9249C58.255 43.6509 56.405 44.0139 54.381 44.0139ZM78.394 43.6359C76.244 43.6359 74.536 42.9879 73.271 41.6939C72.006 40.3999 71.374 38.6949 71.374 36.5799V27.8199C71.374 26.9999 71.342 26.3999 71.279 26.0209C71.248 25.6429 71.058 25.3109 70.709 25.0269C70.362 24.7429 69.777 24.6009 68.955 24.6009C68.575 24.6009 68.291 24.5539 68.101 24.4589C67.911 24.3329 67.817 24.0639 67.817 23.6539C67.817 23.4639 67.88 23.2909 68.007 23.1339C68.133 22.9439 68.323 22.8339 68.576 22.8019C70.568 22.5169 72.276 22.1069 73.698 21.5699C74.141 21.4129 74.504 21.3179 74.789 21.2859H74.931C75.437 21.2859 75.691 21.5859 75.691 22.1859V36.5329C75.691 37.9849 76.149 39.1059 77.066 39.8949C77.9549 40.6422 79.0827 41.0454 80.244 41.0308C81.73 41.0308 82.994 40.6679 84.038 39.9419C85.082 39.2159 85.778 38.4899 86.125 37.7639V27.8209C86.125 26.9999 86.094 26.4009 86.031 26.0209C85.999 25.6429 85.809 25.3109 85.461 25.0269C85.113 24.7429 84.528 24.6009 83.706 24.6009C83.326 24.6009 83.042 24.5539 82.853 24.4589C82.663 24.3329 82.568 24.0639 82.568 23.6539C82.568 23.4639 82.631 23.2909 82.758 23.1339C82.884 22.9439 83.074 22.8339 83.327 22.8019C85.319 22.5169 87.027 22.1069 88.45 21.5699C88.892 21.4129 89.256 21.3179 89.54 21.2859H89.683C90.189 21.2859 90.442 21.5859 90.442 22.1859V38.5699C90.442 40.4329 91.691 41.3638 94.189 41.3638C94.726 41.3638 94.995 41.6639 94.995 42.2639C94.995 42.7049 94.726 42.9739 94.189 43.0679L86.552 43.5889C86.331 43.5889 86.204 43.5099 86.172 43.3529C86.142 43.2259 86.125 42.9899 86.125 42.6429V39.9899H86.031C85.305 40.6717 84.5614 41.3346 83.801 41.9779C83.232 42.4199 82.489 42.7989 81.571 43.1149C80.686 43.4619 79.627 43.6348 78.394 43.6348V43.6359ZM97.59 43.2099C97.4795 43.2094 97.3705 43.1834 97.2717 43.134C97.1728 43.0845 97.0867 43.013 97.02 42.9249C96.894 42.7359 96.83 42.5149 96.83 42.2629C96.862 41.8529 96.957 41.6149 97.115 41.5529C97.274 41.4579 97.558 41.4099 97.969 41.4099C98.791 41.4099 99.376 41.2679 99.724 40.9839C100.072 40.6999 100.262 40.3679 100.293 39.9899C100.357 39.6099 100.388 39.0108 100.388 38.1898V27.3469C100.388 26.5269 100.357 25.9269 100.293 25.5469C100.262 25.1689 100.072 24.8369 99.724 24.5539C99.376 24.2699 98.791 24.1269 97.969 24.1269C97.589 24.1269 97.305 24.0799 97.116 23.9849C96.926 23.8589 96.831 23.5909 96.831 23.1799C96.831 22.9909 96.894 22.8169 97.021 22.6599C97.147 22.4699 97.337 22.3598 97.59 22.3279C99.645 22.0119 101.337 21.6019 102.665 21.0969C103.203 20.9389 103.566 20.8439 103.756 20.8129H103.898C104.404 20.8129 104.657 21.1129 104.657 21.7129V24.6479H104.799C105.906 23.5429 107.029 22.6749 108.167 22.0439C109.306 21.3809 110.333 21.0499 111.25 21.0499C112.294 21.0499 113.116 21.4439 113.717 22.2329C114.349 22.9909 114.665 23.8749 114.665 24.8849C114.665 25.7689 114.397 26.5579 113.859 27.2519C113.321 27.9469 112.578 28.2939 111.63 28.2939C111.217 28.3011 110.809 28.2034 110.444 28.0099C110.128 27.8199 109.954 27.6629 109.922 27.5369C109.954 27.4739 110.112 27.2839 110.396 26.9679C110.681 26.6209 110.823 26.2269 110.823 25.7849C110.823 25.2159 110.665 24.7589 110.349 24.4119C110.064 24.0639 109.669 23.8909 109.163 23.8909C108.626 23.8909 107.946 24.1589 107.124 24.6959C106.301 25.2008 105.495 25.8479 104.705 26.6369V38.1898C104.705 39.0108 104.736 39.6099 104.799 39.9899C104.863 40.3679 105.068 40.6999 105.416 40.9839C105.764 41.2679 106.349 41.4099 107.171 41.4099H107.456C107.709 41.4099 107.898 41.4578 108.025 41.5518C108.151 41.6469 108.23 41.8839 108.262 42.2619C108.262 42.5149 108.199 42.7359 108.072 42.9249C107.946 43.1148 107.756 43.2099 107.503 43.2099C105.844 43.1197 104.184 43.072 102.523 43.0669C101.1 43.0669 99.456 43.1158 97.59 43.2099ZM171.257 43.6359C169.107 43.6359 167.194 43.1298 165.518 42.1199C163.842 41.0788 162.53 39.7209 161.581 38.0479C160.677 36.3925 160.204 34.5361 160.206 32.6499C160.206 30.2829 160.759 28.2309 161.866 26.4949C162.973 24.7269 164.38 23.3849 166.087 22.4699C167.795 21.5229 169.518 21.0499 171.257 21.0499C173.408 21.0499 175.321 21.5699 176.997 22.6119C178.641 23.5886 179.986 24.9968 180.886 26.6839C181.823 28.311 182.313 30.1564 182.309 32.0339C182.309 34.4019 181.74 36.4699 180.602 38.2379C179.495 39.9739 178.088 41.3149 176.38 42.2619C174.673 43.1779 172.965 43.6359 171.257 43.6359ZM171.257 41.8839C173.408 41.8839 174.973 40.9679 175.953 39.1369C176.965 37.3069 177.471 34.9389 177.471 32.0349C177.471 29.3199 176.949 27.1109 175.906 25.4049C174.894 23.6699 173.344 22.8019 171.257 22.8019C169.076 22.8019 167.495 23.7019 166.514 25.5009C165.534 27.2999 165.044 29.6509 165.044 32.5559C165.044 35.2699 165.55 37.5119 166.562 39.2789C167.574 41.0159 169.139 41.8839 171.257 41.8839ZM194.261 43.8719C192.711 43.8719 191.383 43.3039 190.276 42.1679C189.17 41.0308 188.616 39.4059 188.616 37.2909V23.3699L185.865 23.4649C185.773 23.4656 185.682 23.4445 185.6 23.4033C185.517 23.3621 185.446 23.302 185.391 23.2279C185.267 23.0466 185.2 22.8317 185.201 22.6119C185.201 22.3279 185.249 22.0919 185.343 21.9019C185.47 21.6809 185.644 21.5549 185.865 21.5229C186.972 21.3029 187.826 20.9549 188.427 20.4819C189.059 19.9759 189.518 19.4399 189.802 18.8719C190.087 18.2719 190.435 17.3719 190.846 16.1719C191.004 15.7619 191.352 15.5569 191.889 15.5569C192.11 15.5569 192.332 15.6199 192.553 15.7469C192.774 15.8409 192.885 15.9989 192.885 16.2199L192.553 21.6179L198.103 21.2859H198.198C198.609 21.2859 198.814 21.5859 198.814 22.1859C198.814 22.5329 198.751 22.8649 198.624 23.1799C198.53 23.4649 198.403 23.6069 198.245 23.6069L192.933 23.4649V37.8589C192.933 38.9009 193.138 39.7689 193.549 40.4629C193.992 41.1579 194.703 41.5049 195.684 41.5049C196.664 41.5049 197.534 41.3309 198.292 40.9839C198.704 40.8259 198.956 40.7469 199.051 40.7469C199.273 40.7469 199.447 40.8419 199.573 41.0308C199.7 41.1889 199.826 41.4109 199.953 41.6939C199.987 41.7682 200.003 41.8493 200 41.9309C200 42.0569 199.905 42.1988 199.715 42.3568C198.798 42.9568 197.929 43.3519 197.107 43.5409C196.316 43.7609 195.367 43.8719 194.261 43.8719ZM117.597 42.9249C117.723 43.1148 117.913 43.2089 118.166 43.2089C119.809 43.1187 121.454 43.0713 123.099 43.0669C125.218 43.0669 127.194 43.1148 129.028 43.2089C129.132 43.2112 129.235 43.1862 129.327 43.1364C129.418 43.0866 129.495 43.0136 129.55 42.9249C129.676 42.7349 129.739 42.5149 129.739 42.2619C129.708 41.8839 129.629 41.6469 129.502 41.5518C129.407 41.4578 129.218 41.4099 128.933 41.4099H128.648C127.605 41.4099 126.862 41.3309 126.419 41.1729C125.976 41.0159 125.676 40.7309 125.518 40.3209C125.36 39.8789 125.281 39.1689 125.281 38.1909V23.4629H130.309C130.419 23.4623 130.528 23.4364 130.627 23.3872C130.725 23.3379 130.811 23.2667 130.878 23.1789C131.036 22.9899 131.115 22.7689 131.115 22.5159C131.083 22.1379 130.988 21.9009 130.83 21.8059C130.704 21.6799 130.498 21.6159 130.214 21.6159H125.281V18.7759C125.281 17.2608 125.344 15.9349 125.47 14.7979C125.588 13.6564 125.961 12.556 126.561 11.5779C127.162 10.5999 128.095 10.1109 129.36 10.1109C129.505 10.1109 129.646 10.1189 129.782 10.1359C129.764 9.60538 129.799 9.07445 129.886 8.55085C129.821 8.54907 129.757 8.54807 129.692 8.54785C126.909 8.61085 124.743 9.66785 123.194 11.7209C121.676 13.7409 120.917 16.3769 120.917 19.6279V21.6169H118.071C117.66 21.6169 117.375 21.6639 117.217 21.7589C117.059 21.8219 116.964 22.0749 116.933 22.5159C116.933 22.7689 116.996 22.9899 117.122 23.1789C117.281 23.3689 117.486 23.4639 117.739 23.4639H120.917V38.1898C120.917 39.0429 120.885 39.6579 120.822 40.0368C120.791 40.3839 120.601 40.6999 120.253 40.9839C119.905 41.2679 119.32 41.4099 118.498 41.4099C118.087 41.4099 117.802 41.4578 117.644 41.5518C117.518 41.6148 117.439 41.8519 117.407 42.2619C117.407 42.5149 117.47 42.7359 117.597 42.9249Z" fill="white"/>
<path fill-rule="evenodd" clip-rule="evenodd" d="M142.952 9.865C142.951 10.5564 142.814 11.2409 142.549 11.8794C142.284 12.518 141.896 13.098 141.406 13.5865C140.917 14.0749 140.336 14.4622 139.697 14.7261C139.058 14.9901 138.373 15.1257 137.682 15.125C136.286 15.1261 134.946 14.5725 133.958 13.5862C132.97 12.5998 132.414 11.2613 132.412 9.865C132.412 9.17346 132.549 8.48879 132.814 7.85009C133.079 7.21139 133.468 6.63117 133.957 6.14255C134.447 5.65392 135.027 5.26647 135.666 5.00232C136.306 4.73816 136.99 4.60247 137.682 4.603C138.374 4.60234 139.058 4.73794 139.698 5.00205C140.337 5.26616 140.918 5.6536 141.407 6.14225C141.896 6.6309 142.285 7.21118 142.55 7.84994C142.815 8.4887 142.952 9.17342 142.952 9.865ZM137.682 12.495C138.028 12.4954 138.37 12.4277 138.69 12.2957C139.009 12.1637 139.3 11.9701 139.544 11.7259C139.789 11.4816 139.983 11.1916 140.116 10.8723C140.248 10.553 140.317 10.2107 140.317 9.865C140.317 9.51919 140.249 9.1768 140.116 8.85739C139.984 8.53798 139.789 8.24782 139.545 8.00348C139.3 7.75914 139.009 7.56542 138.69 7.43339C138.37 7.30136 138.028 7.2336 137.682 7.234C136.984 7.23373 136.314 7.51058 135.82 8.00371C135.326 8.49685 135.048 9.16594 135.047 9.864C135.048 10.5622 135.326 11.2316 135.82 11.7249C136.314 12.2183 136.984 12.4953 137.682 12.495ZM135.372 17.414V42.784C135.372 43.067 135.452 43.288 135.61 43.446C135.768 43.636 135.989 43.73 136.274 43.73C136.558 43.73 136.795 43.604 136.985 43.352C137.175 43.131 137.349 42.799 137.507 42.357C137.665 41.915 137.807 41.568 137.934 41.315H138.171C140.226 42.862 142.661 43.635 145.475 43.635C147.373 43.635 149.159 43.13 150.835 42.12C152.511 41.11 153.839 39.737 154.82 38C155.831 36.233 156.337 34.292 156.337 32.177C156.337 30.03 155.895 28.121 155.009 26.447C154.156 24.743 152.97 23.417 151.452 22.47C149.934 21.523 148.242 21.05 146.377 21.05C145.238 21.05 144.084 21.286 142.914 21.76C141.776 22.202 140.748 22.88 139.831 23.796H139.689V17.5C138.269 17.8685 136.776 17.8388 135.372 17.414ZM149.697 39.421C148.527 41.158 146.977 42.026 145.049 42.026C144.037 42.026 143.136 41.805 142.345 41.363C141.586 40.921 140.969 40.4 140.495 39.8C140.052 39.169 139.784 38.6 139.689 38.096V25.596C141.048 24.143 142.724 23.417 144.717 23.417C146.962 23.417 148.653 24.301 149.792 26.069C150.93 27.805 151.499 29.904 151.499 32.366C151.499 35.302 150.899 37.654 149.697 39.421ZM12.7 0.366998C13.0354 0.127971 13.4371 -0.000488281 13.849 -0.000488281C14.2609 -0.000488281 14.6625 0.127971 14.998 0.366998C23.558 6.471 27.438 13.788 27.683 24.287C27.796 29.3 27.313 33.89 25.842 37.855C24.332 41.823 21.649 45.488 17.699 48.584C17.453 48.7751 17.1655 48.9055 16.8596 48.9646C16.5538 49.0237 16.2384 49.0098 15.939 48.924C14.729 48.577 14.523 47.145 13.849 46.253C13.175 47.145 12.971 48.576 11.759 48.923C11.4597 49.0086 11.1444 49.0224 10.8388 48.9633C10.5332 48.9043 10.2458 48.774 9.99997 48.583C6.04997 45.488 3.36597 41.823 1.85697 37.855C0.38697 33.89 -0.0970298 29.3 0.0159702 24.287C0.25997 13.788 4.13997 6.47 12.7 0.366998ZM17.126 44.062C19.598 41.792 21.088 39.317 22.14 36.47C23.465 32.99 23.847 29.144 23.732 24.379C23.542 16.192 21.622 10.865 15.809 5.919V20.387C18.082 20.971 19.102 23.197 19.102 25.647C19.102 28.099 18.082 30.325 15.809 30.909V42.746C15.809 42.746 16.865 43.719 17.126 44.062ZM10.538 44.062C8.06597 41.792 6.61097 39.317 5.55797 36.47C4.23397 32.99 3.85197 29.144 3.96797 24.379C4.15797 16.209 6.06697 10.859 11.856 5.919V20.387C9.58297 20.971 8.56197 23.197 8.56197 25.647C8.56197 28.099 9.58197 30.325 11.856 30.909V42.746C11.856 42.746 10.79 43.731 10.538 44.062ZM13.832 23.017C13.1338 23.0165 12.4641 23.2932 11.9699 23.7864C11.4758 24.2796 11.1978 24.9489 11.197 25.647C11.197 27.101 12.377 28.278 13.832 28.278C14.5301 28.2785 15.1999 28.0018 15.694 27.5086C16.1881 27.0154 16.4662 26.3461 16.467 25.648C16.467 24.195 15.287 23.017 13.832 23.017Z" fill="white"/>
</g>
<defs>
<clipPath id="clip0_9_261">
<rect width="200" height="49" fill="white"/>
</clipPath>
</defs>
</svg>
