<svg width="196" height="34" viewBox="0 0 196 34" fill="none" xmlns="http://www.w3.org/2000/svg">
<g clip-path="url(#clip0_9_259)">
<path d="M21.644 32.9548C20.4706 32.9864 19.3082 32.7219 18.264 32.1858C17.2254 31.6536 16.3395 30.8654 15.69 29.8958C13.6449 31.7743 10.9953 32.8594 8.22 32.9548C3.233 32.9548 0.53 29.4908 1.443 24.5248C2.137 20.7908 5.242 17.0488 6.11 14.0448C4.43 13.0368 1.936 12.3348 0.767 14.3948L0 13.9358C0.612 11.6778 2.091 10.1758 4.228 10.1758C6.365 10.1758 7.945 11.4258 9.982 10.2748H11.607C10.74 14.7728 8.548 18.3708 7.379 24.6688C6.667 28.5288 7.991 30.2828 10.229 30.2828C11.8822 30.0795 13.403 29.2755 14.502 28.0238C13.6095 25.8275 13.1596 23.4765 13.178 21.1058C13.178 15.6358 15.726 9.86984 20 9.86984C22.192 9.86984 23.817 11.3718 23.817 14.9348C23.817 18.4968 21.626 24.0118 18.831 27.4748C18.982 28.2998 19.421 29.0468 20.071 29.5878C20.721 30.1278 21.542 30.4278 22.393 30.4358C26.466 30.4358 29.315 24.4158 29.315 18.8478C29.315 13.2798 26.868 13.5308 27.078 11.6508C27.0969 11.4159 27.162 11.187 27.2696 10.9773C27.3772 10.7676 27.5252 10.5812 27.705 10.4288C28.069 10.1188 28.543 9.96385 29.023 9.99584C30.293 9.99584 31.963 11.5788 31.963 18.0028C31.963 26.1888 27.544 32.9548 21.644 32.9548ZM20.722 12.6948C19.452 12.6948 18.228 17.3098 18.073 22.0778C18.0137 23.0974 18.0321 24.12 18.128 25.1368C20.0432 22.018 21.2119 18.4988 21.543 14.8538C21.534 13.2338 21.233 12.6938 20.721 12.6938L20.722 12.6948ZM40.329 32.7478C39.7964 32.8021 39.2584 32.7403 38.752 32.5668C38.2475 32.3944 37.7868 32.1139 37.402 31.7448C37.0197 31.3778 36.7233 30.9308 36.534 30.4358C36.3451 29.9429 36.2686 29.4141 36.31 28.8878C36.31 26.6838 39.215 15.6988 39.215 13.8908C39.215 13.0368 39.014 12.5328 38.247 12.5328C37.3912 12.6702 36.5942 13.0546 35.954 13.6388V12.0828C37.2835 10.8768 38.9997 10.1846 40.794 10.1308C41.3299 10.0832 41.8698 10.1514 42.377 10.3308C42.883 10.5108 43.343 10.7958 43.726 11.1688C44.108 11.5408 44.404 11.9908 44.592 12.4888C44.779 12.9848 44.855 13.5158 44.812 14.0438C44.812 16.2478 41.909 27.1878 41.909 28.9868C41.909 29.8418 42.109 30.3458 42.877 30.3458C43.7212 30.2055 44.5126 29.8419 45.169 29.2928V30.7948C43.8445 32.0091 42.1253 32.7028 40.329 32.7478ZM43.89 0.998845C44.288 0.986845 44.684 1.05885 45.051 1.21285C45.417 1.36685 45.746 1.59685 46.012 1.88785C46.279 2.17663 46.4787 2.52104 46.5967 2.89627C46.7146 3.2715 46.7478 3.66822 46.694 4.05785C46.5958 4.88975 46.1972 5.65716 45.573 6.21585C44.9435 6.77964 44.1329 7.09929 43.288 7.11685C42.8905 7.12944 42.4949 7.05645 42.128 6.90284C41.7623 6.75007 41.4341 6.51977 41.166 6.22785C40.899 5.93906 40.6993 5.59465 40.5813 5.21942C40.4634 4.84419 40.4302 4.44747 40.484 4.05785C40.5823 3.22597 40.9809 2.45859 41.605 1.89985C42.2347 1.33649 43.0453 1.01622 43.89 0.998845ZM55.196 28.0338C54.941 29.3918 55.096 30.3368 56.064 30.3368C56.9112 30.2064 57.7051 29.8417 58.356 29.2838L58.447 30.7948C57.1176 32.0013 55.4014 32.6938 53.607 32.7478C50.447 32.7478 49.224 30.4898 49.69 27.6828L52.795 10.2748C53.827 4.46284 53.47 3.69784 50.31 3.69784L50.511 2.29485L60.036 1.05284L55.196 28.0338ZM81.982 27.9878C81.726 29.3468 81.826 30.3458 82.849 30.3458C83.6981 30.1872 84.4896 29.8051 85.142 29.2388V30.7948C83.8212 32.0148 82.0996 32.7095 80.302 32.7478C79.3927 32.8138 78.4912 32.5409 77.771 31.9818C77.0565 31.4283 76.5772 30.6255 76.429 29.7338C75.6625 30.7324 74.6786 31.5432 73.552 32.1048C72.4197 32.6702 71.1745 32.9731 69.909 32.9908C63.854 32.9908 61.306 27.7278 62.475 21.4028C63.644 15.0788 69.095 9.91484 75.26 9.91484C76.7175 9.88431 78.1591 10.2213 79.452 10.8948L79.607 10.0948C80.813 3.90484 80.256 3.69784 77.096 3.69784L77.251 2.29485L86.821 1.05284L81.981 27.9888L81.982 27.9878ZM75.415 12.1818C71.899 12.1818 69.562 16.2928 68.639 21.3578C67.671 26.6748 68.283 30.3548 71.589 30.3548C73.826 30.3548 76.374 27.6548 77.141 23.5348L79.023 13.0998C77.9348 12.4504 76.6813 12.1314 75.415 12.1818ZM98.073 32.9988C90.995 32.9988 89.059 27.9788 89.927 23.1658L92.237 10.2748C93.306 4.45484 92.95 3.65285 89.79 3.65285L89.99 2.24985L99.543 1.05284L97.607 11.9838C99.1008 10.7078 100.986 9.98088 102.95 9.92384C109.114 9.92384 112.009 15.0878 110.895 21.4118C109.781 27.7368 104.11 32.9988 98.073 32.9988ZM101.379 12.3078C100.352 12.3279 99.3576 12.6685 98.534 13.2818C97.7166 13.8904 97.1139 14.7432 96.813 15.7168L95.388 23.8138C94.52 28.6268 96.256 30.5878 98.448 30.5878C101.653 30.5878 103.644 27.0798 104.712 21.3128C105.662 16.1488 104.795 12.3348 101.37 12.3348L101.379 12.3078ZM120.548 24.3268C120.548 28.1868 122.429 30.2468 126.027 30.2468C127.854 30.2468 130.511 28.9968 132.192 27.3408L132.904 28.9418C131.693 30.2049 130.242 31.2139 128.637 31.9098C127.025 32.6087 125.291 32.9818 123.534 33.0078C118.192 33.0078 114.575 29.0948 114.575 23.7778C114.575 15.9058 121.196 9.93284 127.562 9.93284C131.434 9.93284 133.616 12.0378 133.616 14.4938C133.571 18.3078 129.9 22.5908 120.548 24.3268ZM127.114 12.2358C124.21 12.2358 121.416 16.4008 120.648 22.3658C126.502 20.9618 128.995 17.0488 129.05 14.5388C129.041 13.1358 128.374 12.2358 127.105 12.2358H127.114ZM154.393 32.7478C153.484 32.8137 152.582 32.5408 151.862 31.9818C151.148 31.4282 150.669 30.6253 150.521 29.7338C149.783 30.7319 148.822 31.5444 147.715 32.1068C146.603 32.6729 145.376 32.975 144.128 32.9898C138.174 32.9898 135.626 27.7278 136.822 21.4028C138.018 15.0788 143.379 9.92284 149.562 9.92284C150.872 9.91622 152.17 10.1737 153.379 10.6798H159.187L156.073 27.9878C155.817 29.3468 155.918 30.3458 156.941 30.3458C157.79 30.1869 158.581 29.8048 159.233 29.2388V30.7948C157.912 32.0147 156.191 32.7094 154.393 32.7478ZM149.708 12.1818C146.292 12.1818 143.9 16.2928 142.986 21.3578C142.018 26.6748 142.685 30.3548 145.726 30.3548C148.064 30.3548 150.566 27.5478 151.279 23.5348L153.16 13.0998C152.133 12.4504 150.931 12.1301 149.717 12.1818H149.708ZM177.005 15.8428C175.626 15.8428 175.269 14.7908 174.868 13.6838C174.731 13.1243 174.402 12.6304 173.939 12.2878C173.472 11.9425 172.9 11.7684 172.32 11.7948C171.566 11.7549 170.824 11.995 170.237 12.4688C169.654 12.938 169.27 13.6097 169.16 14.3498C169.005 15.7088 170.027 16.8598 171.963 18.5148L174.557 20.6198C175.521 21.3376 176.269 22.3061 176.721 23.4198C177.17 24.5298 177.303 25.7398 177.105 26.9178C176.447 30.6778 173.288 32.9898 169.059 32.9898C163.963 32.9898 160.712 30.0298 161.068 28.0238C161.151 27.4968 161.421 27.0138 161.831 26.6658C162.241 26.3158 162.764 26.1218 163.306 26.1168C164.63 26.1168 165.132 27.1158 165.543 28.4198C165.807 29.1698 166.314 29.8118 166.986 30.2478C167.66 30.6842 168.459 30.8889 169.26 30.8308C170.052 30.8684 170.829 30.6128 171.444 30.1128C172.053 29.6172 172.454 28.9103 172.566 28.1328C172.767 26.3328 171.653 25.2268 169.562 23.3638L167.014 21.1598C166.118 20.4865 165.418 19.5866 164.986 18.5528C164.556 17.5242 164.411 16.3989 164.566 15.2948C165.023 12.8838 167.306 9.89684 172.557 9.89684C176.63 9.89684 179.178 12.1548 178.95 13.9628C178.924 14.4615 178.71 14.9317 178.35 15.2778C177.99 15.6258 177.509 15.8278 177.005 15.8428ZM195.644 12.6948H190.703L188.311 26.0268C187.799 28.7888 188.21 30.0398 189.735 30.0398C190.548 30.0398 191.826 29.5898 193.653 27.7368L193.753 29.6888C192.923 30.6565 191.895 31.4341 190.738 31.9688C189.576 32.5066 188.312 32.7902 187.032 32.8008C183.571 32.8008 181.836 30.3908 182.658 25.9278L185.05 12.6948H181.187L181.489 10.6348H185.388L186.411 4.66985H192.11L191.041 10.6338H195.982L195.644 12.6948Z" fill="white"/>
</g>
<defs>
<clipPath id="clip0_9_259">
<rect width="196" height="34" fill="white"/>
</clipPath>
</defs>
</svg>
