<svg width="48" height="48" viewBox="0 0 48 48" fill="none" xmlns="http://www.w3.org/2000/svg">
<path d="M24 44C20.4667 44 17.5833 43.4417 15.35 42.325C13.1167 41.2083 12 39.7667 12 38C12 36.8333 12.4833 35.8167 13.45 34.95C14.4167 34.0833 15.75 33.4 17.45 32.9L18.6 36.7C18.0333 36.8667 17.5167 37.075 17.05 37.325C16.5833 37.575 16.2667 37.8 16.1 38C16.5333 38.5333 17.5333 39 19.1 39.4C20.6667 39.8 22.3 40 24 40C25.7 40 27.3417 39.8 28.925 39.4C30.5083 39 31.5167 38.5333 31.95 38C31.7833 37.8 31.4667 37.575 31 37.325C30.5333 37.075 30.0167 36.8667 29.45 36.7L30.6 32.9C32.3 33.4 33.625 34.0833 34.575 34.95C35.525 35.8167 36 36.8333 36 38C36 39.7667 34.8833 41.2083 32.65 42.325C30.4167 43.4417 27.5333 44 24 44ZM24 30.65C24.6 29.55 25.2333 28.5417 25.9 27.625C26.5667 26.7083 27.2167 25.8333 27.85 25C29.0833 23.4 30.0667 21.9583 30.8 20.675C31.5333 19.3917 31.9 17.8 31.9 15.9C31.9 13.7 31.1333 11.8333 29.6 10.3C28.0667 8.76667 26.2 8 24 8C21.8 8 19.9333 8.76667 18.4 10.3C16.8667 11.8333 16.1 13.7 16.1 15.9C16.1 17.8 16.4667 19.3917 17.2 20.675C17.9333 21.9583 18.9167 23.4 20.15 25C20.7833 25.8333 21.4333 26.7083 22.1 27.625C22.7667 28.5417 23.4 29.55 24 30.65ZM24 38C23.6333 38 23.3 37.8917 23 37.675C22.7 37.4583 22.4833 37.1667 22.35 36.8C21.5833 34.4333 20.6167 32.45 19.45 30.85C18.2833 29.25 17.15 27.7167 16.05 26.25C14.9833 24.7833 14.0583 23.2667 13.275 21.7C12.4917 20.1333 12.1 18.2 12.1 15.9C12.1 12.5667 13.25 9.75 15.55 7.45C17.85 5.15 20.6667 4 24 4C27.3333 4 30.15 5.15 32.45 7.45C34.75 9.75 35.9 12.5667 35.9 15.9C35.9 18.2 35.5167 20.1333 34.75 21.7C33.9833 23.2667 33.05 24.7833 31.95 26.25C30.8833 27.7167 29.7583 29.25 28.575 30.85C27.3917 32.45 26.4167 34.4333 25.65 36.8C25.5167 37.1667 25.3 37.4583 25 37.675C24.7 37.8917 24.3667 38 24 38ZM24 20.15C25.1667 20.15 26.1667 19.7333 27 18.9C27.8333 18.0667 28.25 17.0667 28.25 15.9C28.25 14.7333 27.8333 13.7333 27 12.9C26.1667 12.0667 25.1667 11.65 24 11.65C22.8333 11.65 21.8333 12.0667 21 12.9C20.1667 13.7333 19.75 14.7333 19.75 15.9C19.75 17.0667 20.1667 18.0667 21 18.9C21.8333 19.7333 22.8333 20.15 24 20.15Z" fill="black"/>
</svg>
